<?xml version="1.0" standalone="no"?>
<!DOCTYPE svg PUBLIC "-//W3C//DTD SVG 20010904//EN"
 "http://www.w3.org/TR/2001/REC-SVG-20010904/DTD/svg10.dtd">
<svg version="1.0" xmlns="http://www.w3.org/2000/svg"
 width="244.000000pt" height="244.000000pt" viewBox="0 0 244.000000 244.000000"
 preserveAspectRatio="xMidYMid meet">
<metadata>
Created by potrace 1.14, written by Peter Selinger 2001-2017
</metadata>
<g transform="translate(0.000000,244.000000) scale(0.100000,-0.100000)"
fill="#000000" stroke="none">
<path d="M958 1931 c-35 -28 -50 -70 -88 -261 l-34 -165 -213 1 c-117 1 -213
-1 -213 -4 0 -15 -182 -902 -191 -929 -6 -18 -24 -44 -42 -59 -25 -21 -38 -25
-69 -21 l-38 5 27 -50 c41 -76 134 -128 254 -143 115 -14 197 33 253 147 31
62 46 124 106 422 39 192 72 351 74 353 1 2 18 -71 37 -162 l34 -165 147 0
146 0 -4 -36 c-12 -99 -55 -289 -72 -317 -23 -41 -58 -59 -100 -52 l-33 6 19
-38 c44 -85 126 -136 250 -155 160 -25 258 60 311 267 11 44 46 213 77 375 32
162 59 291 61 285 1 -5 23 -108 48 -229 41 -198 64 -280 65 -236 0 13 1 13 10
0 9 -13 10 -13 10 0 0 13 1 13 10 0 9 -13 10 -13 10 0 0 13 1 13 10 0 9 -13
10 -13 10 0 0 13 1 13 10 0 9 -13 10 -13 10 0 0 13 1 13 10 0 9 -13 10 -13 10
0 0 13 1 13 10 0 9 -13 10 -13 10 0 0 13 1 13 10 0 9 -13 10 -13 10 0 0 13 1
13 10 0 9 -13 10 -13 10 0 0 13 1 13 10 0 9 -13 10 -13 10 0 0 13 1 13 10 0 9
-13 10 -13 10 0 0 13 1 13 10 0 9 -13 10 -13 10 0 0 13 1 13 10 0 9 -13 10
-13 10 0 0 13 1 13 10 0 9 -13 10 -13 10 0 0 13 1 13 10 0 9 -13 10 -13 10 0
0 13 1 13 10 0 9 -13 10 -13 10 0 0 13 1 13 10 0 9 -13 10 -13 10 0 0 13 1 13
10 0 9 -13 10 -13 10 0 0 13 1 13 10 0 9 -13 10 -13 10 0 0 13 1 13 10 0 9
-13 10 -13 10 0 0 13 1 13 10 0 8 -12 10 -10 10 10 -1 44 -216 1104 -231 1135
-27 57 -113 41 -144 -28 -8 -18 -31 -108 -50 -201 -20 -94 -37 -172 -40 -174
-3 -3 -98 -5 -212 -6 l-208 -1 -29 -142 c-16 -79 -32 -143 -35 -143 -3 0 -36
151 -73 336 -38 185 -74 348 -81 363 -16 35 -72 41 -109 12z"/>
</g>
</svg>
